<svg width="13" height="13" viewBox="0 0 13 13" fill="none" xmlns="http://www.w3.org/2000/svg">
<g clip-path="url(#clip0_177_6)">
<path d="M12.48 0H0.52C0.232375 0 0 0.232375 0 0.52V12.48C0 12.7676 0.232375 13 0.52 13H12.48C12.7676 13 13 12.7676 13 12.48V0.52C13 0.232375 12.7676 0 12.48 0Z" fill="#FFCA07"/>
<path d="M1.94605 10.5119C1.94605 10.378 1.97595 10.2584 2.03575 10.1531C2.09685 10.0465 2.1794 9.96395 2.2834 9.90545C2.3887 9.84565 2.50635 9.81575 2.63635 9.81575C2.78845 9.81575 2.9217 9.85475 3.0361 9.93275C3.1505 10.0108 3.23045 10.1187 3.27595 10.2565H2.962C2.9308 10.1915 2.8866 10.1427 2.8294 10.1102C2.7735 10.0777 2.7085 10.0615 2.6344 10.0615C2.5551 10.0615 2.48425 10.0803 2.42185 10.118C2.36075 10.1544 2.31265 10.2064 2.27755 10.274C2.24375 10.3416 2.22685 10.4209 2.22685 10.5119C2.22685 10.6016 2.24375 10.6809 2.27755 10.7498C2.31265 10.8174 2.36075 10.8701 2.42185 10.9078C2.48425 10.9442 2.5551 10.9624 2.6344 10.9624C2.7085 10.9624 2.7735 10.9461 2.8294 10.9136C2.8866 10.8798 2.9308 10.8304 2.962 10.7654H3.27595C3.23045 10.9045 3.1505 11.0131 3.0361 11.0911C2.923 11.1678 2.78975 11.2061 2.63635 11.2061C2.50635 11.2061 2.3887 11.1769 2.2834 11.1184C2.1794 11.0586 2.09685 10.976 2.03575 10.8707C1.97595 10.7654 1.94605 10.6458 1.94605 10.5119Z" fill="black"/>
<path d="M3.98883 11.212C3.88483 11.212 3.79123 11.1892 3.70803 11.1437C3.62483 11.0969 3.55918 11.0313 3.51108 10.9468C3.46428 10.8623 3.44088 10.7648 3.44088 10.6543C3.44088 10.5438 3.46493 10.4463 3.51303 10.3618C3.56243 10.2773 3.62938 10.2123 3.71388 10.1668C3.79838 10.12 3.89263 10.0966 3.99663 10.0966C4.10063 10.0966 4.19488 10.12 4.27938 10.1668C4.36388 10.2123 4.43018 10.2773 4.47828 10.3618C4.52768 10.4463 4.55238 10.5438 4.55238 10.6543C4.55238 10.7648 4.52703 10.8623 4.47633 10.9468C4.42693 11.0313 4.35933 11.0969 4.27353 11.1437C4.18903 11.1892 4.09413 11.212 3.98883 11.212ZM3.98883 10.9741C4.03823 10.9741 4.08438 10.9624 4.12728 10.939C4.17148 10.9143 4.20658 10.8779 4.23258 10.8298C4.25858 10.7817 4.27158 10.7232 4.27158 10.6543C4.27158 10.5516 4.24428 10.4729 4.18968 10.4183C4.13638 10.3624 4.07073 10.3345 3.99273 10.3345C3.91473 10.3345 3.84908 10.3624 3.79578 10.4183C3.74378 10.4729 3.71778 10.5516 3.71778 10.6543C3.71778 10.757 3.74313 10.8363 3.79383 10.8922C3.84583 10.9468 3.91083 10.9741 3.98883 10.9741Z" fill="black"/>
<path d="M4.68243 10.6504C4.68243 10.5412 4.70389 10.4443 4.74679 10.3598C4.79099 10.2753 4.85078 10.2103 4.92618 10.1648C5.00158 10.1193 5.08543 10.0966 5.17773 10.0966C5.24793 10.0966 5.31488 10.1122 5.37858 10.1434C5.44228 10.1733 5.49298 10.2136 5.53068 10.2643V9.7514H5.80758V11.1944H5.53068V11.0345C5.49688 11.0878 5.44943 11.1307 5.38833 11.1632C5.32723 11.1957 5.25638 11.212 5.17578 11.212C5.08478 11.212 5.00158 11.1886 4.92618 11.1418C4.85078 11.095 4.79099 11.0293 4.74679 10.9448C4.70389 10.859 4.68243 10.7609 4.68243 10.6504ZM5.53263 10.6543C5.53263 10.588 5.51963 10.5314 5.49363 10.4846C5.46763 10.4365 5.43253 10.4001 5.38833 10.3754C5.34413 10.3494 5.29668 10.3364 5.24598 10.3364C5.19528 10.3364 5.14848 10.3488 5.10558 10.3735C5.06268 10.3982 5.02758 10.4346 5.00028 10.4827C4.97428 10.5295 4.96128 10.5854 4.96128 10.6504C4.96128 10.7154 4.97428 10.7726 5.00028 10.822C5.02758 10.8701 5.06268 10.9071 5.10558 10.9331C5.14978 10.9591 5.19658 10.9721 5.24598 10.9721C5.29668 10.9721 5.34413 10.9598 5.38833 10.9351C5.43253 10.9091 5.46763 10.8727 5.49363 10.8259C5.51963 10.7778 5.53263 10.7206 5.53263 10.6543Z" fill="black"/>
<path d="M7.07847 10.6309C7.07847 10.6699 7.07587 10.705 7.07067 10.7362H6.28092C6.28742 10.8142 6.31472 10.8753 6.36282 10.9195C6.41092 10.9637 6.47007 10.9858 6.54027 10.9858C6.64167 10.9858 6.71382 10.9422 6.75672 10.8551H7.05117C7.01997 10.9591 6.96017 11.0449 6.87177 11.1125C6.78337 11.1788 6.67482 11.212 6.54612 11.212C6.44212 11.212 6.34852 11.1892 6.26532 11.1437C6.18342 11.0969 6.11907 11.0313 6.07227 10.9468C6.02677 10.8623 6.00402 10.7648 6.00402 10.6543C6.00402 10.5425 6.02677 10.4443 6.07227 10.3598C6.11777 10.2753 6.18147 10.2103 6.26337 10.1648C6.34527 10.1193 6.43952 10.0966 6.54612 10.0966C6.64882 10.0966 6.74047 10.1187 6.82107 10.1629C6.90297 10.2071 6.96602 10.2701 7.01022 10.352C7.05572 10.4326 7.07847 10.5256 7.07847 10.6309ZM6.79572 10.5529C6.79442 10.4827 6.76907 10.4268 6.71967 10.3852C6.67027 10.3423 6.60982 10.3208 6.53832 10.3208C6.47072 10.3208 6.41352 10.3416 6.36672 10.3832C6.32122 10.4235 6.29327 10.4801 6.28287 10.5529H6.79572Z" fill="black"/>
<path d="M8.11818 9.8333V10.0537H7.55073V10.4027H7.98558V10.6192H7.55073V11.1944H7.27773V9.8333H8.11818Z" fill="black"/>
<path d="M8.58476 9.7514V11.1944H8.31176V9.7514H8.58476Z" fill="black"/>
<path d="M9.87434 10.1141V11.1944H9.59939V11.0579C9.56429 11.1047 9.51814 11.1418 9.46094 11.1691C9.40504 11.1951 9.34394 11.2081 9.27764 11.2081C9.19314 11.2081 9.11839 11.1905 9.05339 11.1554C8.98839 11.119 8.93704 11.0664 8.89934 10.9975C8.86294 10.9273 8.84474 10.8441 8.84474 10.7479V10.1141H9.11774V10.7089C9.11774 10.7947 9.13919 10.861 9.18209 10.9078C9.22499 10.9533 9.28349 10.976 9.35759 10.976C9.43299 10.976 9.49214 10.9533 9.53504 10.9078C9.57794 10.861 9.59939 10.7947 9.59939 10.7089V10.1141H9.87434Z" fill="black"/>
<path d="M10.7404 11.1944L10.5181 10.859L10.3211 11.1944H10.0286L10.3816 10.6523L10.0247 10.1141H10.3328L10.5532 10.4476L10.7521 10.1141H11.0446L10.6897 10.6523L11.0485 11.1944H10.7404Z" fill="black"/>
<path d="M3.40955 7.98646L6.49227 4.86627C6.55489 4.80425 6.55489 4.68991 6.49227 4.62789L3.40955 1.50963C3.32606 1.42436 3.19922 1.49607 3.19922 1.62785V2.84298C3.19922 2.8895 3.21527 2.93213 3.24578 2.9612L5.00871 4.74805L3.24578 6.53489C3.21688 6.56396 3.19922 6.60854 3.19922 6.65311V7.86824C3.19922 8.00003 3.32606 8.07173 3.40955 7.98646Z" fill="black"/>
<path d="M9.62958 8.02328C9.69541 8.02328 9.75 7.95352 9.75 7.86824V6.938C9.75 6.85273 9.69541 6.78296 9.62958 6.78296H6.65925C6.59342 6.78296 6.53883 6.85273 6.53883 6.938V7.86824C6.53883 7.95352 6.59342 8.02328 6.65925 8.02328H9.62958Z" fill="black"/>
</g>
<defs>
<clipPath id="clip0_177_6">
<rect width="13" height="13" fill="white"/>
</clipPath>
</defs>
</svg>
